HIERARCHY
ROOT Hips
{
    OFFSET 0.000000 0.000000 0.000000
    CHANNELS 6 Xposition Yposition Zposition Zrotation Xrotation Yrotation
    JOINT Spine
    {
        OFFSET 0.000002 7.164412 0.000002
        CHANNELS 3 Zrotation Xrotation Yrotation
        JOINT Spine1
        {
            OFFSET -0.000001 20.126801 -0.000002
            CHANNELS 3 Zrotation Xrotation Yrotation
            JOINT Neck
            {
                OFFSET 0.000000 21.094069 0.000000
                CHANNELS 3 Zrotation Xrotation Yrotation
                JOINT Head
                {
                    OFFSET -0.000001 12.838277 1.776080
                    CHANNELS 3 Zrotation Xrotation Yrotation
                    End Site
                    {
                        OFFSET 0.000000 17.760757 0.000000
                    }
                }
            }
            JOINT LeftShoulder
            {
                OFFSET 3.550527 15.465700 -0.908803
                CHANNELS 3 Zrotation Xrotation Yrotation
                JOINT LeftArm
                {
                    OFFSET 12.513296 -0.000006 -0.000002
                    CHANNELS 3 Zrotation Xrotation Yrotation
                    JOINT LeftForeArm
                    {
                        OFFSET 24.225996 -0.000003 0.000001
                        CHANNELS 3 Zrotation Xrotation Yrotation
                        JOINT LeftHand
                        {
                            OFFSET 20.711399 -0.000005 -0.000004
                            CHANNELS 3 Zrotation Xrotation Yrotation
                            JOINT LeftHandThumb1
                            {
                                OFFSET 2.121969 -2.411331 3.375859
                                CHANNELS 3 Zrotation Xrotation Yrotation
                                JOINT LeftHandThumb2
                                {
                                    OFFSET 2.803208 0.000003 0.000001
                                    CHANNELS 3 Zrotation Xrotation Yrotation
                                    JOINT LeftHandThumb3
                                    {
                                        OFFSET 2.395929 0.000004 -0.000003
                                        CHANNELS 3 Zrotation Xrotation Yrotation
                                        End Site
                                        {
                                            OFFSET 2.127676 0.000000 0.000000
                                        }
                                    }
                                }
                            }
                            JOINT LeftHandIndex1
                            {
                                OFFSET 8.680775 0.000005 3.375860
                                CHANNELS 3 Zrotation Xrotation Yrotation
                                JOINT LeftHandIndex2
                                {
                                    OFFSET 4.218178 -0.000000 -0.000000
                                    CHANNELS 3 Zrotation Xrotation Yrotation
                                    JOINT LeftHandIndex3
                                    {
                                        OFFSET 2.109086 -0.000004 0.000002
                                        CHANNELS 3 Zrotation Xrotation Yrotation
                                        End Site
                                        {
                                            OFFSET 1.872952 0.000000 0.000000
                                        }
                                    }
                                }
                            }
                            JOINT LeftHandMiddle1
                            {
                                OFFSET 8.680778 -0.000002 1.118860
                                CHANNELS 3 Zrotation Xrotation Yrotation
                                JOINT LeftHandMiddle2
                                {
                                    OFFSET 4.640003 -0.000004 -0.000001
                                    CHANNELS 3 Zrotation Xrotation Yrotation
                                    JOINT LeftHandMiddle3
                                    {
                                        OFFSET 2.530911 0.000002 -0.000001
                                        CHANNELS 3 Zrotation Xrotation Yrotation
                                        End Site
                                        {
                                            OFFSET 2.247544 0.000000 0.000000
                                        }
                                    }
                                }
                            }
                            JOINT LeftHandRing1
                            {
                                OFFSET 8.198517 0.000004 -1.118860
                                CHANNELS 3 Zrotation Xrotation Yrotation
                                JOINT LeftHandRing2
                                {
                                    OFFSET 4.218183 -0.000002 -0.000002
                                    CHANNELS 3 Zrotation Xrotation Yrotation
                                    JOINT LeftHandRing3
                                    {
                                        OFFSET 2.109094 0.000005 -0.000000
                                        CHANNELS 3 Zrotation Xrotation Yrotation
                                        End Site
                                        {
                                            OFFSET 1.872952 0.000000 0.000000
                                        }
                                    }
                                }
                            }
                            JOINT LeftHandPinky1
                            {
                                OFFSET 7.716254 0.000002 -3.375863
                                CHANNELS 3 Zrotation Xrotation Yrotation
                                JOINT LeftHandPinky2
                                {
                                    OFFSET 3.374536 0.000002 0.000001
                                    CHANNELS 3 Zrotation Xrotation Yrotation
                                    JOINT LeftHandPinky3
                                    {
                                        OFFSET 1.687274 -0.000002 -0.000004
                                        CHANNELS 3 Zrotation Xrotation Yrotation
                                        End Site
                                        {
                                            OFFSET 1.498360 0.000000 0.000000
                                        }
                                    }
                                }
                            }
                        }
                    }
                }
            }
            JOINT RightShoulder
            {
                OFFSET -3.550529 15.465699 -0.908801
                CHANNELS 3 Zrotation Xrotation Yrotation
                JOINT RightArm
                {
                    OFFSET -12.513299 -0.000001 -0.000000
                    CHANNELS 3 Zrotation Xrotation Yrotation
                    JOINT RightForeArm
                    {
                        OFFSET -24.226000 -0.000003 -0.000001
                        CHANNELS 3 Zrotation Xrotation Yrotation
                        JOINT RightHand
                        {
                            OFFSET -20.711397 -0.000003 -0.000002
                            CHANNELS 3 Zrotation Xrotation Yrotation
                            JOINT RightHandThumb1
                            {
                                OFFSET -2.121970 -2.411331 3.375859
                                CHANNELS 3 Zrotation Xrotation Yrotation
                                JOINT RightHandThumb2
                                {
                                    OFFSET -2.803209 -0.000004 0.000004
                                    CHANNELS 3 Zrotation Xrotation Yrotation
                                    JOINT RightHandThumb3
                                    {
                                        OFFSET -2.395928 0.000004 -0.000003
                                        CHANNELS 3 Zrotation Xrotation Yrotation
                                        End Site
                                        {
                                            OFFSET -2.127676 0.000000 0.000000
                                        }
                                    }
                                }
                            }
                            JOINT RightHandIndex1
                            {
                                OFFSET -8.680779 0.000001 3.375859
                                CHANNELS 3 Zrotation Xrotation Yrotation
                                JOINT RightHandIndex2
                                {
                                    OFFSET -4.218179 0.000003 -0.000001
                                    CHANNELS 3 Zrotation Xrotation Yrotation
                                    JOINT RightHandIndex3
                                    {
                                        OFFSET -2.109090 -0.000002 0.000000
                                        CHANNELS 3 Zrotation Xrotation Yrotation
                                        End Site
                                        {
                                            OFFSET -1.872952 0.000000 0.000000
                                        }
                                    }
                                }
                            }
                            JOINT RightHandMiddle1
                            {
                                OFFSET -8.680779 -0.000002 1.118859
                                CHANNELS 3 Zrotation Xrotation Yrotation
                                JOINT RightHandMiddle2
                                {
                                    OFFSET -4.639998 0.000003 -0.000001
                                    CHANNELS 3 Zrotation Xrotation Yrotation
                                    JOINT RightHandMiddle3
                                    {
                                        OFFSET -2.530910 -0.000000 -0.000000
                                        CHANNELS 3 Zrotation Xrotation Yrotation
                                        End Site
                                        {
                                            OFFSET -2.247544 0.000000 0.000000
                                        }
                                    }
                                }
                            }
                            JOINT RightHandRing1
                            {
                                OFFSET -8.198519 -0.000004 -1.118859
                                CHANNELS 3 Zrotation Xrotation Yrotation
                                JOINT RightHandRing2
                                {
                                    OFFSET -4.218180 -0.000005 0.000000
                                    CHANNELS 3 Zrotation Xrotation Yrotation
                                    JOINT RightHandRing3
                                    {
                                        OFFSET -2.109090 0.000002 0.000002
                                        CHANNELS 3 Zrotation Xrotation Yrotation
                                        End Site
                                        {
                                            OFFSET -1.872952 0.000000 0.000000
                                        }
                                    }
                                }
                            }
                            JOINT RightHandPinky1
                            {
                                OFFSET -7.716249 0.000004 -3.375858
                                CHANNELS 3 Zrotation Xrotation Yrotation
                                JOINT RightHandPinky2
                                {
                                    OFFSET -3.374539 0.000003 -0.000000
                                    CHANNELS 3 Zrotation Xrotation Yrotation
                                    JOINT RightHandPinky3
                                    {
                                        OFFSET -1.687270 -0.000004 -0.000001
                                        CHANNELS 3 Zrotation Xrotation Yrotation
                                        End Site
                                        {
                                            OFFSET -1.498360 0.000000 0.000000
                                        }
                                    }
                                }
                            }
                        }
                    }
                }
            }
        }
    }
    JOINT LeftUpLeg
    {
        OFFSET 8.880377 0.000003 0.000001
        CHANNELS 3 Zrotation Xrotation Yrotation
        JOINT LeftLeg
        {
            OFFSET -0.000000 -40.387413 0.000001
            CHANNELS 3 Zrotation Xrotation Yrotation
            JOINT LeftFoot
            {
                OFFSET -0.000000 -36.911304 0.000000
                CHANNELS 3 Zrotation Xrotation Yrotation
                JOINT LeftToeBase
                {
                    OFFSET 0.000003 -5.772240 13.320597
                    CHANNELS 3 Zrotation Xrotation Yrotation
                    End Site
                    {
                        OFFSET 0.000000 0.000000 3.552151
                    }
                }
            }
        }
    }
    JOINT RightUpLeg
    {
        OFFSET -8.880380 -0.000003 -0.000001
        CHANNELS 3 Zrotation Xrotation Yrotation
        JOINT RightLeg
        {
            OFFSET 0.000001 -40.387405 0.000000
            CHANNELS 3 Zrotation Xrotation Yrotation
            JOINT RightFoot
            {
                OFFSET -0.000001 -36.911304 -0.000001
                CHANNELS 3 Zrotation Xrotation Yrotation
                JOINT RightToeBase
                {
                    OFFSET 0.000000 -5.772241 13.320600
                    CHANNELS 3 Zrotation Xrotation Yrotation
                    End Site
                    {
                        OFFSET 0.000000 0.000000 3.552151
                    }
                }
            }
        }
    }
}
MOTION
Frames: 4
Frame Time: 0.013889
61.622822    82.129524    -28.284374    -2.141332    -1.470590    -0.463679    0.511155    -12.409060    2.377383    -1.904988    11.477859    2.655195    -1.831190    4.130624    -3.262013    -1.761161    3.176312    -3.299707    0.524783    2.626207    -0.531059    -37.862671    21.736219    -15.415256    -61.648426    1.403179    -90.757057    -59.496132    -29.347681    13.161278    41.246708    23.989456    -51.567768    -35.195900    -9.670814    21.320055    -0.000000    0.000000    -0.000000    0.672748    17.998793    -25.560783    0.639819    -0.000000    -0.000003    0.639821    0.000003    -0.000002    -6.728671    8.939019    -11.626213    -6.646577    0.000003    0.000000    -6.646577    -0.000003    0.000001    -10.415249    -8.854084    -7.350142    -10.289774    0.000000    -0.000001    -10.289774    -0.000003    0.000001    -14.619974    -17.453064    -15.932644    -13.932969    0.000001    0.000002    -13.932973    0.000000    0.000000    -4.739188    1.422381    3.331799    16.234278    33.877029    26.466772    10.004110    2.421172    103.467674    22.901140    -34.798588    3.486370    -56.291973    20.698009    38.866760    -3.532768    6.546484    -22.429039    -0.000000    0.000000    -0.000000    7.132205    17.869568    -7.928398    6.786474    -0.000007    -0.000001    6.786470    0.000000    0.000005    6.335709    8.945939    -3.853944    6.258337    -0.000004    -0.000002    6.258328    0.000000    0.000005    6.068421    -8.950383    -5.247198    5.994261    0.000003    0.000001    5.994266    -0.000003    0.000000    6.022958    -17.906954    -10.531468    5.730187    0.000003    -0.000000    5.730188    0.000007    -0.000000    -2.636856    -2.824644    1.747741    0.000000    23.189899    -0.000000    8.137009    -12.506337    -2.819293    -0.000000    3.648228    0.000001    -1.987342    -25.619617    -3.355258    -0.000001    66.753998    0.000001    2.916861    7.210975    -2.076607    0.000000    -3.147023    -0.000000    
61.481972    82.056252    -28.158670    -2.141699    -1.518609    -0.693815    0.534696    -12.419100    2.484768    -2.002119    11.463423    2.776952    -1.974429    4.188517    -3.210255    -1.830009    3.215764    -3.255096    0.420130    2.667990    -0.585226    -37.904823    21.945559    -15.440591    -61.549805    1.127348    -90.610764    -59.801853    -29.232510    12.847930    41.329849    23.930183    -51.524548    -35.336132    -9.724736    21.296434    -0.000000    0.000000    -0.000000    0.279147    17.999752    -25.663624    0.265482    0.000007    -0.000003    0.265484    -0.000003    0.000002    -7.035293    8.933338    -11.690817    -6.949529    -0.000003    0.000001    -6.949531    -0.000003    -0.000001    -10.685617    -8.846426    -7.391737    -10.557034    0.000003    0.000002    -10.557035    -0.000007    -0.000004    -14.861952    -17.434847    -16.005178    -14.164542    0.000002    0.000000    -14.164538    -0.000000    0.000001    -4.923337    1.362869    3.378707    15.838374    33.935261    26.855192    10.051368    2.442953    103.521507    22.970379    -34.705856    3.496632    -56.335854    20.749035    38.762379    -3.532771    6.546481    -22.429043    -0.000000    0.000000    -0.000000    7.199510    17.867085    -7.949051    6.850577    -0.000007    0.000000    6.850577    0.000003    -0.000002    6.368125    8.945362    -3.858985    6.290351    0.000004    0.000003    6.290349    0.000003    -0.000004    6.084602    -8.950139    -5.232457    6.010238    -0.000003    0.000002    6.010240    0.000003    -0.000004    6.022894    -17.906967    -10.507023    5.730127    -0.000003    0.000000    5.730123    0.000003    -0.000000    -2.549804    -2.946883    1.807809    0.000001    23.766932    -0.000000    8.041725    -12.826225    -2.612523    0.000000    3.653863    0.000000    -2.229728    -25.365454    -3.308251    0.000001    66.527634    -0.000001    2.738175    5.652165    -2.900663    -0.000000    -3.556743    -0.000000    
61.375366    81.999039    -28.065559    -2.126875    -1.566461    -0.856023    0.548754    -12.423284    2.549173    -2.086179    11.472591    2.855618    -2.113101    4.239217    -3.218893    -1.916567    3.265906    -3.269136    0.350440    2.705785    -0.612848    -37.913170    22.118444    -15.451032    -61.499428    0.894603    -90.485718    -59.988480    -29.274925    12.612918    41.391365    23.882900    -51.500183    -35.432777    -9.761844    21.280085    -0.000000    0.000000    -0.000000    -0.049034    17.999947    -25.783840    -0.046632    -0.000007    0.000003    -0.046633    0.000000    0.000000    -7.249005    8.929224    -11.768450    -7.160687    0.000003    0.000003    -7.160690    -0.000003    0.000001    -10.848166    -8.841742    -7.416729    -10.717719    0.000007    0.000002    -10.717712    -0.000004    0.000002    -14.977094    -17.426090    -16.039671    -14.274744    0.000000    -0.000001    -14.274746    -0.000002    -0.000001    -5.077321    1.304916    3.416408    15.545856    33.964123    27.185699    10.086891    2.454278    103.534782    22.982758    -34.646450    3.466606    -56.362423    20.780001    38.699181    -3.532776    6.546487    -22.429033    -0.000000    0.000000    -0.000000    7.235293    17.865772    -7.960025    6.884663    0.000000    -0.000000    6.884667    0.000003    -0.000004    6.385354    8.945083    -3.861664    6.307374    0.000007    0.000001    6.307380    -0.000007    0.000002    6.093177    -8.949972    -5.222144    6.018724    0.000003    -0.000002    6.018731    0.000000    0.000002    6.022839    -17.906946    -10.489095    5.730078    0.000003    0.000002    5.730085    -0.000003    -0.000002    -2.487993    -3.038877    1.920399    -0.000001    24.234278    0.000000    8.007538    -13.067148    -2.509791    -0.000001    3.660593    0.000001    -2.496989    -25.162710    -3.331779    -0.000001    66.291061    0.000001    2.287241    4.615618    -3.747148    -0.000000    -3.704210    0.000002    
61.274391    81.934242    -27.974209    -2.105742    -1.607170    -1.007355    0.561387    -12.419424    2.608578    -2.143901    11.478423    2.924233    -2.253674    4.280495    -3.154687    -2.000164    3.268292    -3.212062    0.221535    2.729862    -0.639522    -37.951706    22.276241    -15.459054    -61.430202    0.697511    -90.379814    -60.063694    -29.280706    12.335851    41.466988    23.823261    -51.473660    -35.511608    -9.792096    21.266699    -0.000000    0.000000    -0.000000    -0.334397    17.999659    -25.937399    -0.318033    0.000007    -0.000002    -0.318028    -0.000007    -0.000000    -7.413851    8.925985    -11.863739    -7.323568    -0.000004    0.000001    -7.323571    -0.000003    -0.000000    -10.958044    -8.838515    -7.433614    -10.826339    -0.000003    0.000000    -10.826344    -0.000003    -0.000001    -15.033892    -17.421734    -16.056681    -14.329105    -0.000000    0.000002    -14.329108    0.000002    0.000001    -5.205040    1.246528    3.425152    15.242873    33.982544    27.502441    10.107551    2.460521    103.540672    22.987289    -34.580048    3.456539    -56.377460    20.797560    38.663326    -3.532770    6.546479    -22.429045    -0.000000    0.000000    -0.000000    7.261673    17.864794    -7.968121    6.909790    0.000000    0.000002    6.909788    0.000007    0.000001    6.398039    8.944870    -3.863634    6.319918    -0.000010    0.000001    6.319913    0.000003    -0.000004    6.099512    -8.949869    -5.212378    6.024979    0.000000    -0.000000    6.024976    0.000000    0.000002    6.022803    -17.906961    -10.471542    5.730035    0.000007    -0.000000    5.730042    -0.000000    -0.000002    -2.447434    -3.116362    2.003802    -0.000000    24.638073    0.000000    8.061002    -13.288993    -2.414833    0.000000    3.655583    -0.000000    -2.814909    -24.952276    -3.371494    -0.000002    65.972473    0.000002    1.787786    3.586086    -4.697233    -0.000000    -3.728047    0.000002    
